{"title":"Mean.Girls.2.2011.DvDRip.x264.Feel-Free ","uid":6127130,"size":1002115275,"categoryP":"video","categoryS":"movies","magnet":"?xt=urn:btih:d214c780e371456db581369e7d0c5cc5c4511cdf&amp;dn=Mean.Girls.2.2011.DvDRip.x264.Feel-Free+&amp;tr=udp%3A%2F%2Ftracker.openbittorrent.com%3A80&amp;tr=udp%3A%2F%2Fopen.demonii.com%3A1337&amp;tr=udp%3A%2F%2Ftracker.coppersurfer.tk%3A6969&amp;tr=udp%3A%2F%2Fexodus.desync.com%3A6969","seeders":0,"leechers":1,"uploader":"neon","files":-1,"time":1295981472,"description":"The story revolves around a new high school student, Jo, who agrees to befriend an outcast, Abby, at the urging of Abby's wealthy father in exchange for paying all of Jo's costs for the college of her dreams. Jo and Abby team up to take on the school's &quot;mean girls,&quot; the Plastics. The story becomes a high stakes battle of loyalty that ultimately comes to a head when one of our heroines finds out that her friendship has been \n\n\nGenre: Comedy\nLanguage:English\n &lt;a href=&quot; http://www.imdb.com/title/tt1679235/&quot; rel=&quot;nofollow&quot; target=&quot;_NEW&quot;&gt; http://www.imdb.com/title/tt1679235/&lt;/a&gt;\nSource:DVD\n\n\nFormat : MPEG-4\nFormat profile : Base Media\nCodec ID : isom\nFile size : 953 MiB\nDuration : 1h 36mn\nOverall bit rate : 1 377 Kbps\nMovie name : Mean.Girls.2.2011.DvDRip.x264.Feel-Free\n\n\nVideo\nFormat settings, CABAC : Yes\nFormat settings, ReFrames : 4 frames\nFormat settings, GOP : M=4, N=32\nCodec ID : avc1\nCodec ID/Info : Advanced Video Coding\nDuration : 1h 36mn\nBit rate mode : Variable\nBit rate : 1 000 Kbps\nWidth : 720 pixels\nHeight : 384 pixels\nDisplay aspect ratio : 1.875\nFrame rate mode : Constant\nFrame rate : 23.976 fps\nColor space : YUV\nChroma subsampling : 4:2:0\nBit depth : 8 bits\nScan type : Progressive\nBits/(Pixel*Frame) : 0.151\nStream size : 684 MiB (72%)\nWriting library : x264\n\nAudio\nID : 2\nFormat : AAC\nFormat/Info : Advanced Audio Codec\nFormat version : Version 4\nFormat profile : LC\nCodec ID : 40\nDuration : 1h 36mn\nBit rate mode : Variable\nBit rate : 384 Kbps\nChannel(s) : 6 channels\nChannel positions : Front: L C R, Side: L R, LFE\nSampling rate : 48.0 KHz\nStream size : 265 MiB (28%)\n &lt;a href=&quot;\nhttp://www.rapidhdd.com/images/534573vlcsnap-00002.png&quot; rel=&quot;nofollow&quot; target=&quot;_NEW&quot;&gt;\nhttp://www.rapidhdd.com/images/534573vlcsnap-00002.png&lt;/a&gt; &lt;a href=&quot;\nhttp://www.rapidhdd.com/images/737681vlcsnap-00006.png&quot; rel=&quot;nofollow&quot; target=&quot;_NEW&quot;&gt;\nhttp://www.rapidhdd.com/images/737681vlcsnap-00006.png&lt;/a&gt; &lt;a href=&quot;\nhttp://www.rapidhdd.com/images/179391vlcsnap-00003.png&quot; rel=&quot;nofollow&quot; target=&quot;_NEW&quot;&gt;\nhttp://www.rapidhdd.com/images/179391vlcsnap-00003.png&lt;/a&gt; &lt;a href=&quot;\nhttp://www.rapidhdd.com/images/27604vlcsnap-00004.png&quot; rel=&quot;nofollow&quot; target=&quot;_NEW&quot;&gt;\nhttp://www.rapidhdd.com/images/27604vlcsnap-00004.png&lt;/a&gt;","torrent":{"xt":"urn:btih:d214c780e371456db581369e7d0c5cc5c4511cdf","amp;dn":"Mean.Girls.2.2011.DvDRip.x264.Feel-Free+","amp;tr":["udp%3A%2F%2Ftracker.openbittorrent.com%3A80","udp%3A%2F%2Fopen.demonii.com%3A1337","udp%3A%2F%2Ftracker.coppersurfer.tk%3A6969","udp%3A%2F%2Fexodus.desync.com%3A6969"],"infoHash":"d214c780e371456db581369e7d0c5cc5c4511cdf","infoHashBuffer":{"type":"Buffer","data":[210,20,199,128,227,113,69,109,181,129,54,158,125,12,92,197,196,81,28,223]},"announce":[],"urlList":[]}}